<svg width="240" height="240" viewBox="0 0 240 240" fill="none"
    xmlns="http://www.w3.org/2000/svg">
    <g fill="#9fc1e6" fill-opacity="0.42">
        <circle cx="24" cy="24" r="4"/>
        <circle cx="60" cy="24" r="4"/>
        <circle cx="96" cy="24" r="4"/>
        <circle cx="132" cy="24" r="4"/>
        <circle cx="168" cy="24" r="4"/>
        <circle cx="204" cy="24" r="4"/>
        <circle cx="24" cy="60" r="4"/>
        <circle cx="60" cy="60" r="4"/>
        <circle cx="96" cy="60" r="4"/>
        <circle cx="132" cy="60" r="4"/>
        <circle cx="168" cy="60" r="4"/>
        <circle cx="204" cy="60" r="4"/>
        <circle cx="24" cy="96" r="4"/>
        <circle cx="60" cy="96" r="4"/>
        <circle cx="96" cy="96" r="4"/>
        <circle cx="132" cy="96" r="4"/>
        <circle cx="168" cy="96" r="4"/>
        <circle cx="204" cy="96" r="4"/>
        <circle cx="24" cy="132" r="4"/>
        <circle cx="60" cy="132" r="4"/>
        <circle cx="96" cy="132" r="4"/>
        <circle cx="132" cy="132" r="4"/>
        <circle cx="168" cy="132" r="4"/>
        <circle cx="204" cy="132" r="4"/>
        <circle cx="24" cy="168" r="4"/>
        <circle cx="60" cy="168" r="4"/>
        <circle cx="96" cy="168" r="4"/>
        <circle cx="132" cy="168" r="4"/>
        <circle cx="168" cy="168" r="4"/>
        <circle cx="204" cy="168" r="4"/>
        <circle cx="24" cy="204" r="4"/>
        <circle cx="60" cy="204" r="4"/>
        <circle cx="96" cy="204" r="4"/>
        <circle cx="132" cy="204" r="4"/>
        <circle cx="168" cy="204" r="4"/>
        <circle cx="204" cy="204" r="4"/>
    </g>
</svg>
